<?xml version="1.0" encoding="utf-8" ?><svg xmlns="http://www.w3.org/2000/svg" xmlns:xlink="http://www.w3.org/1999/xlink" width="512" height="512" viewBox="0 0 512 512"><path fill="#2C5180" transform="scale(0.5 0.5)" d="M151.789 77.2121L155.232 77.1127C184.135 76.4167 216.177 77.0781 245.334 77.0765L423.957 77.0581L507.72 77.0283C522.255 77.0126 541.233 76.0292 555.235 78.048C589.625 83.0063 615.745 115.341 615.534 149.908C615.35 180.118 615.506 210.794 615.511 241.209L615.486 430.388L615.46 516.96C615.457 522.466 615.53 527.945 615.448 533.484C615.283 544.75 615.997 555.798 614.112 567.011C609.743 593.015 589.084 615.053 564.142 622.807C555.484 625.498 546.831 625.781 537.999 625.854L267.243 625.878L191.689 625.906C175.656 625.933 155.587 626.796 140.192 624.439C127.729 622.598 116.046 617.253 106.505 609.026C89.4721 594.234 82.175 574.949 81.856 552.866C81.4978 528.07 81.843 503.031 81.6549 478.215L81.822 282.065L81.5383 186.566C81.5286 175.168 80.8851 150.024 82.2843 139.485C84.1379 125.284 90.1743 111.956 99.6253 101.195C114.028 84.8872 130.461 78.5015 151.789 77.2121ZM336.51 251.932C348.386 264.003 360.631 275.897 372.642 287.852C381.229 296.398 390.471 306.243 399.597 314.044C378.17 313.175 356.661 313.184 335.219 313.317C277.07 313.678 218.797 312.795 160.66 313.463C160.878 338.872 160.965 364.281 160.922 389.691L317.535 389.633L369.143 389.704C377.985 389.713 390.52 389.982 399.249 389.412C378.472 408.94 358.516 429.237 338.196 449.232C337.484 450.149 337.042 450.778 337.003 451.987C336.73 460.523 336.768 469.465 336.715 477.988L336.489 518.238C336.527 528.475 336.866 539.758 336.564 549.838C355.555 532.077 374.675 512.215 393.146 493.84L494.479 392.783L522.438 364.717C526.603 360.506 531.346 355.272 535.516 351.309C490.713 306.091 445.584 261.198 400.132 216.634C379.105 196.056 358.267 173.924 336.509 154.265L336.51 251.932Z"/><path fill="#1A3054" transform="scale(0.5 0.5)" d="M430.29 718.698C434.811 718.281 448.394 718.679 453.458 718.687L501.388 718.727L544.502 718.556C559.392 718.475 574.233 716.38 586.899 725.68C604.262 738.427 600.523 758.985 600.479 778.363L600.414 829.934C600.298 843.144 600.278 856.355 600.355 869.565C600.448 880.345 600.984 891.493 599.798 902.182C597.856 919.698 583.857 931.001 567.052 933.234C534.121 932.705 500.743 933.513 467.754 933.152C453.02 932.991 436.881 933.843 422.213 932.305C417.62 931.651 413.843 929.679 410.19 927.066C392.581 914.466 395.789 895.069 395.745 876.031L395.69 821.458L395.631 778.148C395.559 768.747 394.912 757.767 396.132 748.564C398.434 731.192 414.146 720.603 430.29 718.698ZM564.336 926.073C596.876 920.02 593.4 899.19 593.369 872.658L593.288 822.894L593.227 774.564C593.216 768.282 593.495 752.72 592.469 747.555C591.055 740.632 586.907 734.574 580.966 730.75C570.993 724.32 556.727 725.796 545.235 725.853L508.743 726L459.491 726.028C451.99 726.031 440.584 725.705 433.338 726.206C419.927 727.129 406.871 733.961 403.669 748.599C402.027 756.102 402.836 767.722 402.858 775.696L402.979 816.965L403.02 870.87C403.018 880.321 402.733 889.839 403.206 899.357C403.839 912.082 413.936 923.856 426.707 925.672C433.112 926.583 440.412 926.337 446.896 926.284L473.998 926.105C503.801 926.065 534.607 926.591 564.336 926.073Z"/><path fill="#1A3054" transform="scale(0.5 0.5)" d="M493.127 748.834C494.13 749.627 498.136 754.01 499.189 755.118C504.045 760.286 508.942 765.416 513.88 770.507C530.852 787.856 549.524 806.867 566.986 823.631C550.388 840.984 531.679 858.094 514.998 875.542C509.545 881.246 497.608 892.309 493.272 898.087C492.729 887.836 493.161 873.247 493.166 862.683L497.16 858.75C504.094 852.173 511.421 844.4 518.179 837.534C501.394 837.279 484.608 837.113 467.822 837.036C455.493 836.967 440.679 836.665 428.509 837.342C428.02 828.765 428.132 817.114 428.226 808.541C458.055 809.066 487.889 809.242 517.722 809.068C509.697 800.401 501.664 792.451 493.274 784.13C492.728 773.059 493.081 760.014 493.127 748.834Z"/><path fill="#1A3054" transform="scale(0.5 0.5)" d="M130.774 721.197C137.332 720.748 144.799 721.409 151.477 721.427L216.007 721.461L251.244 721.213C258.783 721.157 267.658 720.882 275.056 721.843C280.906 722.604 286.986 726.286 291.104 730.418C298.982 738.324 299.652 745.44 299.658 755.839C299.677 789.368 299.658 822.898 299.656 856.413L299.642 888.015C299.619 900.842 300.924 913.978 290.969 923.808C283.269 931.412 275.584 932.275 265.485 932.284L166.201 932.117C156.898 932.091 147.595 932.114 138.293 932.187C127.807 932.262 118.205 933.469 109.309 926.985C103.94 923.071 97.9034 914.652 97.3786 907.942C96.5026 896.74 96.8118 885.068 96.8118 873.844L96.8552 814.13L96.8643 771.634C96.8508 769.015 96.9787 765.397 96.7888 762.859C94.9164 737.848 104.461 723.075 130.774 721.197Z"/><path fill="#FEFEFE" transform="scale(0.5 0.5)" d="M191.05 749.233C194.718 751.27 214.283 771.009 218.241 774.935L269.525 825.715C259.776 835.742 248.326 846.339 238.194 856.277L190.771 903.117C190.432 894.626 190.066 873.581 190.911 865.775C199.381 857.103 207.98 848.558 216.706 840.143L125.878 840.119L125.931 809.709C156.492 809.104 187.105 810.095 217.625 809.821L190.983 783.808L191.05 749.233Z"/><path fill="#1A3054" transform="scale(0.5 0.5)" d="M789.272 519.108C797.341 518.557 808.361 518.97 816.651 518.986L866.826 519.03L904.791 518.92C914.156 518.88 925.759 518.212 934.721 520.486C945.072 523.113 955.557 534.71 956.833 545.407C957.88 554.182 957.626 563.835 957.642 572.805L957.674 616.134L957.658 663.192C957.627 689.031 961.631 716.337 928.614 720.887C920.117 721.514 907.604 721.065 898.795 721.067L843.48 721.028C832.341 720.988 821.201 721.024 810.062 721.136C798.53 721.213 784.663 722.74 774.684 716.382C756.841 705.014 760.176 686.337 760.258 668.231L760.378 622.447L760.352 577.93C760.331 568.696 760.204 559.721 760.76 550.489C761.751 534.042 773.155 522.063 789.272 519.108ZM802.875 715.841C831.789 715.586 860.704 715.559 889.619 715.76C896.532 715.764 903.488 715.71 910.41 715.811C923.803 716.005 938.606 717.026 947.441 704.764C953.144 696.85 952.123 685.99 952.142 676.661L952.241 650.629C952.354 618.219 952.482 585.772 952.043 553.365C951.728 530.104 936.398 524.516 916.367 524.734C887.235 525.948 857.412 524.413 828.231 524.977C814.282 525.247 798.672 523.607 785.15 526.204C777.925 527.592 767.639 538.668 766.76 545.864C765.724 554.343 765.865 563.136 765.87 571.699L765.918 609.074L765.947 661.653C765.937 670.964 765.357 680.965 766.006 690.176C767.634 713.298 784.767 716.196 802.875 715.841Z"/><path fill="#1A3054" transform="scale(0.5 0.5)" d="M851.931 542.635C858.545 545.021 930.965 614.401 933.668 619.73L876.534 675.357C872.076 679.77 858.766 693.41 853.954 695.867C853.327 695.83 852.952 695.994 852.529 695.446C849.549 691.589 851.214 645.481 851.527 637.656C855.196 634.01 858.117 631.219 862.083 627.821L866.536 633.273C871.504 628.603 876.402 623.858 881.225 619.038C874.247 612.092 869.738 607.529 861.167 602.798C858.77 601.475 853.684 595.566 851.584 593.258C850.818 583.209 850.993 552.512 851.931 542.635ZM893.236 618.572C896.057 621.348 906.3 632.5 908.68 633.678C912.864 629.453 919.823 623.505 923.285 619.59C920.564 616.93 909.402 606.33 907.671 604.021C902.986 608.995 898.173 613.847 893.236 618.572ZM872.556 599.153C875.898 602.031 885.317 612.758 887.865 613.529C892.672 608.857 897.9 603.585 902.877 599.197C899.632 596.456 889.596 585.632 887.411 584.81C882.466 589.568 877.437 594.339 872.556 599.153ZM883.694 658.584C878.533 653.472 873.289 648.444 867.965 643.501C864.353 646.998 860.318 650.95 856.507 654.199L856.548 661.058C859.867 664.09 865.316 670.911 868.506 672.11C869.852 671.741 869.759 671.688 870.75 670.666C875.153 666.735 879.469 662.707 883.694 658.584ZM873.169 637.616C876.025 640.351 886.517 652.206 888.667 653.142C892.794 648.954 898.211 643.19 902.648 639.497C900.351 636.93 889.953 625.11 887.509 623.847C882.83 628.231 877.523 633.007 873.169 637.616ZM882.091 579.699L866.378 564.357C863.032 567.681 859.186 571.336 856.036 574.784C856.073 577.646 856.034 580.185 856.429 583.03C859.195 586.089 864.095 592.467 867.805 593.036C869.319 592.375 869.398 592.116 870.513 590.923C874.186 587.617 878.68 583.365 882.091 579.699Z"/><path fill="#1A3054" transform="scale(0.5 0.5)" d="M790.615 598.218C797.893 597.654 808.675 598.273 816.5 598.107C826.688 598.156 836.934 597.778 847.108 598.21C856.405 598.605 857.292 605.483 857.579 613.027C858.003 624.171 858.138 627.219 849.158 634.206C844.206 636.37 824.764 634.988 818.123 635.233C808.84 635.025 799.16 635.761 789.943 634.767C784.904 634.223 785.042 622.702 785.192 619.161C785.494 612.038 783.475 602.383 790.615 598.218ZM794.975 627.8C802.123 627.497 809.323 627.598 816.479 627.626C816.243 620.47 816.352 613.154 816.381 605.983L794.673 605.955C794.811 613.236 794.911 620.518 794.975 627.8ZM825.308 606.336C825.242 613.329 825.255 620.323 825.349 627.317L829.19 627.095C834.341 627.084 841.681 627.28 846.654 626.986C847.384 619.626 847.461 613.443 847.306 606.031L841.443 606.266C836.065 606.362 830.687 606.385 825.308 606.336Z"/><path fill="#C6292C" transform="scale(0.5 0.5)" d="M918.628 304.259C919.599 304.232 920.57 304.214 921.542 304.203C943.706 303.989 957.169 315.4 957.122 338.475C957.1 349.772 957.019 361.301 957.001 372.609C956.867 403.263 956.946 433.917 957.237 464.57C957.328 477.348 957.033 488.892 947.391 498.412C938.082 507.603 927.27 506.636 915.124 506.811C905.157 506.939 895.189 506.98 885.221 506.931L798.875 507.003C754.497 506.994 760.384 476.445 760.496 443.244L760.455 387.628L760.368 356.24C760.33 347.941 759.899 338.615 761.387 330.498C764.107 318.31 774.655 307.523 787.027 305.32C794.862 303.925 802.152 304.496 809.969 304.407C816.506 304.332 822.909 304.415 829.354 304.421C859.112 304.531 888.87 304.477 918.628 304.259ZM924.319 501.964C932.621 501.647 939.466 499.781 945.397 493.508C953.61 484.824 952.095 471.452 952.113 460.403L952.135 425.919L952.141 367.075C952.142 356.444 952.257 345.81 952.016 335.176C951.909 330.451 951.135 326.793 948.809 322.573C945.261 316.138 938.738 310.728 931.292 309.683C924.752 308.765 917.501 308.99 910.814 309.002L881.648 309.057C853.678 309.072 822.037 308.273 794.463 309.211C776.825 310.258 766.113 320.937 765.557 338.887C765.386 344.405 765.467 349.931 765.478 355.453L765.509 390.997L765.461 447.145C765.452 457.494 765.316 467.902 765.647 478.214C765.857 484.783 769.509 491.45 774.374 495.757C782.937 503.337 794.322 502.235 804.78 502.186L832.168 502.061L924.319 501.964Z"/><path fill="#C6292C" transform="scale(0.5 0.5)" d="M852.738 329.202C859.17 332.292 867.102 340.098 872.63 345.004C887.658 358.33 902.425 371.948 916.921 385.85C922.764 391.408 929.785 397.448 935.213 403.091C927.222 411.132 857.284 476.5 853.243 477.865C851.023 474.824 851.87 454.933 851.914 449.905L851.934 437.492C858.637 431.986 867.523 425.082 873.639 419.203C847.299 420.203 815.176 419.512 788.464 419.517C787.686 410.546 788.151 395.732 788.618 386.713C797.523 385.468 822.143 385.984 831.879 386.211C844.175 386.497 861.629 385.77 873.479 386.507C866.474 379.596 859.43 374.888 852.329 368.461C851.707 362.112 851.737 334.993 852.738 329.202ZM857.019 365.45C862.037 369.723 881.728 385.404 883.811 388.721L883.578 389.618C879.924 391.748 858.879 390.974 852.963 390.963L792.824 390.61C792.84 398.381 792.702 406.846 793.004 414.558L885.091 414.445C879.174 420.984 872.803 426.376 866.168 432.147L856.489 440.768L856.612 469.21C867.015 458.667 878.241 448.919 889.094 438.853C902.174 426.722 915.086 414.946 928.549 403.247C916.429 391.573 903.104 379.883 890.632 368.445C880.157 358.838 867.935 347.174 856.987 338.486L857.019 365.45Z"/><path fill="#1A3054" transform="scale(0.5 0.5)" d="M795.934 731.243L884.047 731.506L911.693 731.506C920.645 731.508 931.95 730.871 940.457 734.534C944.174 736.134 947.909 739.828 950.505 743.03C958.412 752.781 957.554 766.071 957.521 777.911C957.497 786.404 957.46 794.955 957.468 803.458L957.829 889.287C958.012 914.912 951.013 932.342 922.25 932.303C895.749 933.254 863.962 932.125 836.961 932.134C828.613 932.109 820.265 932.147 811.917 932.251C797.914 932.507 780.611 934.588 769.519 924.188C762.262 917.385 760.164 908.795 760.178 899.184C760.192 890.331 760.458 881.441 760.487 872.559L760.475 810.46L760.389 774.878C760.373 763.466 758.819 750.438 767.862 741.588C776.097 733.53 784.638 731.365 795.934 731.243ZM928.495 926.31C944.001 921.961 950.768 915.245 951.513 898.521C951.941 888.924 951.873 879.579 951.86 869.971L951.826 826.226L951.806 788.996C951.803 779.415 952.624 765.967 950.811 756.807C946.163 733.33 919.284 737.084 902.189 737.124C888.637 737.179 875.084 737.156 861.532 737.055C845.537 736.909 829.54 736.844 813.544 736.859C807.657 736.872 796.004 736.616 790.637 737.133C777.853 739.23 767.563 747.75 766.709 761.343C766.062 771.636 766.166 781.859 766.113 792.168L766.065 850.342L766.021 884.517C766.004 890.361 765.7 902.135 766.809 907.387C768.163 913.55 771.931 918.912 777.271 922.274C786.862 928.222 802 926.606 813.165 926.536L852.1 926.427L901.219 926.535C908.325 926.55 921.795 926.894 928.495 926.31Z"/><path fill="#1A3054" transform="scale(0.5 0.5)" d="M852.171 757.101C858.999 760.431 871.278 773.559 877.647 779.208C884.272 785.084 891.381 790.358 898.11 796.107C905.928 802.787 913.317 810.085 920.617 817.325C924.574 821.249 929.105 825.254 932.434 829.726C932.875 830.318 933.774 831.402 933.57 832.146C931.935 838.122 872.098 893.281 863.877 900.32C860.916 902.856 857.911 905.37 854.524 907.321C849.002 906.857 850.846 866.349 851.227 860.544L851.273 859.901C853.867 855.241 875.021 837.235 880.2 832.626C875.648 828.475 870.082 822.689 865.506 818.283C862.632 820.939 860.445 822.976 857.849 825.88C857.96 831.861 859.344 842.019 856.809 847.434C856.296 848.53 855.792 849.016 854.633 849.424C846.98 852.124 804.948 851.362 795.155 850.302C793.022 850.071 791.141 849.594 789.198 848.69C787.625 846.838 786.7 843.111 786.896 840.582C787.372 834.453 785.317 819.167 789.497 814.883C790.785 813.732 793.348 813.113 794.977 813.089C815.299 812.784 835.698 813.42 856.015 812.925L851.534 808.415C851.036 799.381 850.683 764.018 852.171 757.101ZM847.628 821.501C841.928 821.491 832.367 821.758 826.981 821.323C827.594 828.022 827.567 833.677 827.159 840.355C827.095 841.408 827.794 841.948 828.442 842.635C831.223 843.586 843.518 842.993 847.399 843.017C847.84 836.736 847.562 828.069 847.628 821.501ZM909.801 846.932C914.364 842.586 919.548 838.184 923.891 833.964C921.275 831.269 910.691 820.328 908.096 819.282C903.46 824.055 898.982 828.785 894.016 833.218C896.349 835.72 906.585 846.849 909.229 847.391L909.801 846.932ZM873.975 852.789C876.021 854.98 886.767 866.928 888.823 867.419C893.46 862.875 897.835 858.546 902.727 854.271C900.014 851.451 890.466 841.372 887.461 839.369C883.171 843.583 878.004 848.441 873.975 852.789ZM796.895 843.079C803.558 843.077 811.398 843.278 817.962 843.026C817.787 835.938 817.905 828.657 817.943 821.551L797.05 821.519C796.863 828.704 796.812 835.892 796.895 843.079ZM869.768 856.933C865.066 861.431 859.845 866.188 855.604 871.071C857.722 873.098 868.543 884.197 870.133 884.636C875.081 880.184 879.264 876.021 884.046 871.473C879.975 867.291 873.289 861.006 869.768 856.933ZM871.327 807.891C875.717 803.532 880.585 798.51 885.112 794.382C882.704 792.178 871.474 781.278 869.577 780.411C865.28 785.29 860.81 790.275 856.664 795.27C859.255 797.816 867.912 807.945 870.265 808.632L871.327 807.891ZM889.505 799.796C884.473 804.551 879.163 809.406 874.466 814.45C876.752 816.619 886.49 826.556 888.594 826.668L888.775 826.609L904.008 813.476C902.02 811.565 890.785 800.285 889.505 799.796Z"/><path fill="#1A3054" transform="scale(0.5 0.5)" d="M852.107 117.747C856.744 120.491 874.822 137.899 879.818 142.454L911.157 171.078C916.856 176.304 924.199 182.698 929.403 188.222C924.339 194.057 917.405 200.522 911.748 205.92C899.535 217.407 887.192 228.754 874.721 239.96C870.276 244.017 857.026 256.911 852.841 259.323C851.562 253.139 852 234.528 852.008 227.375C851.999 226.138 851.926 223.894 852.66 223.013C859.217 215.148 870.311 208.289 876.779 200.471C849.686 200.556 822.649 200.092 795.545 200.534C796.223 192.884 796.007 182.671 796.034 174.795C806.164 173.34 820.483 173.517 830.998 173.476C846.726 173.38 862.455 173.429 878.182 173.622C871.683 167.792 856.635 155.125 851.539 149.074C851.412 138.985 851.853 127.898 852.107 117.747ZM854.454 148.808C858.478 151.766 880.894 171.525 882.506 174.907L882.057 175.853C877.32 177.434 861.329 176.795 855.315 176.724C842.292 176.514 829.268 176.397 816.244 176.376C811.304 176.406 803.332 176.32 798.528 176.751C798.476 183.655 798.466 190.559 798.5 197.463L884.823 197.617C877.542 204.124 869.465 211.687 862.004 217.839C859.56 219.897 857.027 222.096 854.528 224.067C854.548 232.26 854.119 247.15 854.797 254.809L900.599 211.793C908.736 204.24 918.544 195.953 926.169 188.237C909.253 173.829 893.142 158.286 876.662 143.402C870.529 137.863 860.722 127.759 854.624 123.258C854.506 131.774 854.449 140.291 854.454 148.808Z"/><path transform="scale(0.5 0.5)" d="M682.63 36.6695L683.754 37.2346C684.657 38.9751 684.18 45.8354 684.162 48.128C684.103 55.9388 684.132 63.75 684.248 71.5601C684.595 111.536 684.698 151.514 684.554 191.491L684.35 716.979L684.175 887.345C684.116 903.171 684.167 918.998 684.327 934.823C684.403 944.166 684.713 960.636 683.794 969.612C683.031 969.899 683.499 969.804 682.364 969.66C681.651 968.497 681.973 834.984 681.974 818.646L681.946 174.711C681.937 149.616 681.904 123.775 681.862 98.7141C681.848 90.1968 680.416 41.5977 682.63 36.6695Z"/><path fill="#1A3054" transform="scale(0.5 0.5)" d="M812.786 293.306C793.864 293.181 773.352 296.607 764.101 275.272C762.664 271.929 761.797 268.368 761.535 264.739C761.094 258.588 761.363 249.877 761.348 243.525L761.261 203.322L761.21 152.309C761.205 141.443 760.063 120.956 763.111 111.356C770.381 88.4557 798.805 92.0301 816.756 92.0678L860.948 92.0937L900.229 92.0627C921.083 91.9744 944.79 88.2166 954.536 111.395L952.295 112.045C949.324 106.102 942.96 98.2411 936.649 96.6536C925.849 93.9369 908.409 94.8891 897.445 94.9051L847.005 94.9736L810.523 94.9318C803.521 94.9203 796.137 94.8328 789.357 95.1446C779.982 95.5756 767.955 103.097 765.584 112.563C762.835 123.541 763.891 138.306 763.909 149.815L763.96 201.032L763.954 239.679C763.914 250.575 762.504 266.208 767.567 275.868C771.018 282.299 776.874 287.103 783.855 289.23C789.803 291.006 800.144 290.826 806.67 291.054C810.927 292.458 816.747 291.909 821.109 291.824L821.323 292.339C818.795 292.626 812.016 292.214 810.537 292.782L812.786 293.306Z"/><path fill="#1A3054" transform="scale(0.5 0.5)" d="M954.536 111.395C956.832 120.675 956.14 137.202 956.139 147.476L956.214 190.474L956.379 234.958C956.459 245.934 956.961 257.321 955.971 268.199C953.14 299.284 915.082 293.491 893.735 293.324C893.822 293.314 900.975 292.629 900.313 292.436C896.307 292.398 886.506 292.752 883.273 292.252C885.962 292.173 899.186 291.676 900.855 290.947C909.101 289.162 925.347 292.609 934.709 289.467C941.363 287.233 947.457 283.076 950.757 276.814C952.263 273.901 953.174 270.717 953.436 267.449C954.03 259.026 953.908 248.424 953.918 239.961L953.62 188.928L953.952 142.743C953.952 135.366 954.207 118.487 952.295 112.045L954.536 111.395Z"/><path fill="#2C5180" transform="scale(0.5 0.5)" d="M806.67 291.054C827.025 290.828 847.381 290.754 867.737 290.83C878.046 290.86 890.78 290.486 900.855 290.947C899.186 291.676 885.962 292.173 883.273 292.252C886.506 292.752 896.307 292.398 900.313 292.436C900.975 292.629 893.822 293.314 893.735 293.324C868.122 294.014 838.906 293.118 812.786 293.306L810.537 292.782C812.016 292.214 818.795 292.626 821.323 292.339L821.109 291.824C816.747 291.909 810.927 292.458 806.67 291.054Z"/></svg>